<svg xmlns="http://www.w3.org/2000/svg" viewBox="0 0 62.3 62.3"><defs><style>.cls-1{fill:#fff;}.cls-2{stroke:#000;stroke-miterlimit:10;}</style></defs><g id="レイヤー_2" data-name="レイヤー 2"><g id="アイコン背景"><rect class="cls-1" width="62.3" height="62.3"/></g><g id="ホーム画面"><path class="cls-2" d="M39.77,40.66,31.15,43.3l-8.62-2.64c-3.34,3.32-6.77,9.16,1.23,9.16H38.55C46.54,49.82,43.11,44,39.77,40.66Z"/><path class="cls-1" d="M31.15,42.8A14.91,14.91,0,1,1,46.06,27.89,14.93,14.93,0,0,1,31.15,42.8Z"/><path d="M31.15,13.48A14.41,14.41,0,1,1,16.74,27.89,14.43,14.43,0,0,1,31.15,13.48m0-1A15.41,15.41,0,1,0,46.56,27.89,15.41,15.41,0,0,0,31.15,12.48Z"/><path d="M34,39.32a.9.9,0,0,1-.23-1.77,10,10,0,0,0,5.82-15,.9.9,0,1,1,1.51-1,11.78,11.78,0,0,1-6.87,17.75A.59.59,0,0,1,34,39.32Z"/><circle cx="37.62" cy="19.11" r="0.9"/><path d="M16.84,24.73a.9.9,0,0,1-.9-.91V21a1.16,1.16,0,0,0-1.16-1.15H13.51a.91.91,0,0,1,0-1.82h1.27a1.16,1.16,0,0,0,1.16-1.15V14a.91.91,0,1,1,1.81,0v2.85A1.16,1.16,0,0,0,18.91,18h1.26a.91.91,0,1,1,0,1.82H18.91A1.16,1.16,0,0,0,17.75,21v2.85A.91.91,0,0,1,16.84,24.73Z"/><path class="cls-1" d="M16.84,13.22a.78.78,0,0,1,.79.78v2.85a1.28,1.28,0,0,0,1.28,1.28h1.26a.78.78,0,1,1,0,1.56H18.91A1.28,1.28,0,0,0,17.63,21v2.85a.79.79,0,0,1-1.57,0V21a1.28,1.28,0,0,0-1.28-1.28H13.51a.78.78,0,0,1,0-1.56h1.27a1.28,1.28,0,0,0,1.28-1.28V14a.78.78,0,0,1,.78-.78m0-.25a1,1,0,0,0-1,1v2.85a1,1,0,0,1-1,1H13.51a1,1,0,1,0,0,2.06h1.27a1,1,0,0,1,1,1v2.85a1,1,0,0,0,2.07,0V21a1,1,0,0,1,1-1h1.26a1,1,0,1,0,0-2.06H18.91a1,1,0,0,1-1-1V14a1,1,0,0,0-1-1Z"/><path d="M47.47,43a.36.36,0,0,1-.36-.36V41.35a.61.61,0,0,0-.61-.61h-.9a.36.36,0,0,1-.36-.36A.39.39,0,0,1,45.6,40h.9a.61.61,0,0,0,.61-.61V38a.36.36,0,1,1,.72,0v1.32a.61.61,0,0,0,.61.61h.9a.37.37,0,0,1,.36.36.39.39,0,0,1-.36.43h-.9a.61.61,0,0,0-.61.61v1.33A.36.36,0,0,1,47.47,43Z"/><path class="cls-1" d="M47.47,37.79a.23.23,0,0,1,.23.23v1.32a.74.74,0,0,0,.74.74h.9a.23.23,0,0,1,.23.23v.07a.23.23,0,0,1-.23.24h-.9a.74.74,0,0,0-.74.73v1.33a.23.23,0,0,1-.23.23.24.24,0,0,1-.24-.23V41.35a.73.73,0,0,0-.73-.73h-.9a.23.23,0,0,1-.23-.24v-.07a.23.23,0,0,1,.23-.23h.9a.74.74,0,0,0,.73-.74V38a.23.23,0,0,1,.24-.23m0-.25A.48.48,0,0,0,47,38v1.32a.48.48,0,0,1-.48.49h-.9a.48.48,0,0,0-.48.48v.07a.48.48,0,0,0,.48.49h.9a.47.47,0,0,1,.48.48v1.33a.49.49,0,0,0,.49.48.48.48,0,0,0,.48-.48V41.35a.48.48,0,0,1,.49-.48h.9a.49.49,0,0,0,.48-.49v-.07a.49.49,0,0,0-.48-.48h-.9a.49.49,0,0,1-.49-.49V38a.47.47,0,0,0-.48-.48Z"/></g></g></svg>