<svg xmlns="http://www.w3.org/2000/svg" viewBox="0 0 179.28 62.77"><defs><style>.cls-1,.cls-4{fill:#fff;}.cls-2,.cls-3,.cls-4,.cls-5,.cls-6{stroke:#000;}.cls-2,.cls-3,.cls-5{stroke-miterlimit:10;}.cls-2{stroke-width:2px;}.cls-3,.cls-5,.cls-6{fill:none;}.cls-3,.cls-6{stroke-linecap:round;}.cls-3,.cls-4,.cls-5,.cls-6{stroke-width:0.75px;}.cls-4,.cls-6{stroke-linejoin:round;}</style></defs><g id="レイヤー_2" data-name="レイヤー 2"><g id="アイコン背景"><rect class="cls-1" width="179.28" height="62.77"/></g><g id="レイヤー_4" data-name="レイヤー 4"><g id="アイコン"><path class="cls-2" d="M102.06,27.36l-5.9-3.09a1.28,1.28,0,0,0-1.87,1.13v3.46A1.27,1.27,0,0,1,93,30.14H72.21a1.28,1.28,0,0,0-1.28,1.28h0a1.27,1.27,0,0,0,1.28,1.27H93A1.28,1.28,0,0,1,94.29,34v3.46a1.28,1.28,0,0,0,1.87,1.13l5.9-3.08,5.61-2.93a1.28,1.28,0,0,0,0-2.26Z"/><circle cx="43.12" cy="20.39" r="5.94"/><line class="cls-3" x1="43.12" y1="7.7" x2="43.12" y2="12.87"/><line class="cls-3" x1="34.14" y1="11.41" x2="37.8" y2="15.07"/><line class="cls-3" x1="30.43" y1="20.39" x2="35.6" y2="20.39"/><line class="cls-3" x1="34.14" y1="29.36" x2="37.8" y2="25.7"/><line class="cls-3" x1="43.12" y1="33.08" x2="43.12" y2="27.9"/><line class="cls-3" x1="52.09" y1="29.36" x2="48.43" y2="25.7"/><line class="cls-3" x1="55.81" y1="20.39" x2="50.63" y2="20.39"/><line class="cls-3" x1="52.09" y1="11.41" x2="48.43" y2="15.07"/><path class="cls-4" d="M20.42,27.24a3.1,3.1,0,0,1,.81.11,5.77,5.77,0,0,1,9-4.25,7,7,0,0,1,13,2.46,4.18,4.18,0,1,1,1.47,8.09H20.42a3.21,3.21,0,0,1,0-6.41Z"/><line class="cls-5" x1="22.07" y1="35.22" x2="16.76" y2="44.92"/><line class="cls-5" x1="26.87" y1="37.53" x2="17.22" y2="55.14"/><line class="cls-5" x1="29.38" y1="43.99" x2="26.25" y2="49.71"/><line class="cls-5" x1="40.11" y1="35.45" x2="30.43" y2="53.13"/><line class="cls-5" x1="44.59" y1="38.32" x2="39.28" y2="48.02"/><path class="cls-6" d="M141.24,10.25a2.57,2.57,0,1,1,2.56,2.56v2.48"/><path class="cls-6" d="M161.35,26.3c.22-2.29-.3-4.59-2.47-5.39l-15.11-5.62h0l-15.11,5.62c-2.17.8-2.68,3.1-2.47,5.39"/><line class="cls-3" x1="126.43" y1="23.41" x2="161.13" y2="23.41"/><path d="M143.78,55.15H155a1.41,1.41,0,0,0,1.41-1.44c-.54-20.93,6.66-18.72,6.79-19a57.24,57.24,0,0,0,.56-11.09c-.41-5-4.19-5.54-5.72-5.56a1.4,1.4,0,0,0-1,.43L144.8,31.38a1.4,1.4,0,0,1-2,0L130.55,18.51a1.38,1.38,0,0,0-1-.43c-1.53,0-5.32.59-5.72,5.56a56.4,56.4,0,0,0,.56,11.09c.12.26,7.32-1.95,6.79,19a1.4,1.4,0,0,0,1.4,1.44Z"/></g></g></g></svg>