<svg xmlns="http://www.w3.org/2000/svg" viewBox="0 0 179.28 62.77"><defs><style>.cls-1{fill:#fff;}.cls-2,.cls-3{stroke:#000;}.cls-2,.cls-5,.cls-6{stroke-miterlimit:10;}.cls-2,.cls-5{stroke-width:2px;}.cls-3,.cls-5,.cls-6{fill:none;}.cls-3,.cls-6{stroke-linecap:round;stroke-width:0.75px;}.cls-3{stroke-linejoin:round;}.cls-4{fill:#040000;}.cls-5,.cls-6{stroke:#040000;}.cls-5{stroke-linecap:square;}</style></defs><g id="レイヤー_2" data-name="レイヤー 2"><g id="アイコン背景"><rect class="cls-1" width="179.28" height="62.77"/></g><g id="レイヤー_4" data-name="レイヤー 4"><g id="アイコン"><path class="cls-2" d="M95.69,27.92l-5.9-3.09A1.28,1.28,0,0,0,87.92,26v3.47a1.27,1.27,0,0,1-1.27,1.27H65.84A1.28,1.28,0,0,0,64.56,32h0a1.28,1.28,0,0,0,1.28,1.28H86.65a1.27,1.27,0,0,1,1.27,1.27V38a1.28,1.28,0,0,0,1.87,1.14L95.69,36l5.61-2.93a1.28,1.28,0,0,0,0-2.26Z"/><path class="cls-1" d="M38.56,16.76v27H9.61v-27Zm-5.1,19.66V29.17a2.29,2.29,0,0,0-2.29-2.29H16.68a2.3,2.3,0,0,0-2.29,2.29v7.25a2.29,2.29,0,0,0,2.29,2.29H31.17A2.28,2.28,0,0,0,33.46,36.42Zm-3.08-14.6a1,1,0,0,0-1-1H18.49a1,1,0,0,0,0,2.05H29.36A1,1,0,0,0,30.38,21.82Z"/><path d="M52.11,16.76v27H38.56v-27Zm-3.32,8a3.46,3.46,0,1,0-3.46,3.45A3.46,3.46,0,0,0,48.79,24.75Zm0,11.5a3.46,3.46,0,1,0-3.46,3.45A3.45,3.45,0,0,0,48.79,36.25Z"/><path d="M41,43.75h6.9a3.45,3.45,0,0,1-6.9,0Z"/><path d="M45.33,23.56a1.19,1.19,0,1,1-1.18,1.19A1.19,1.19,0,0,1,45.33,23.56Z"/><path d="M45.33,35.06a1.19,1.19,0,1,1-1.18,1.19A1.19,1.19,0,0,1,45.33,35.06Z"/><path class="cls-1" d="M41.88,24.75a3.46,3.46,0,1,1,3.45,3.45A3.46,3.46,0,0,1,41.88,24.75Zm2.27,0a1.19,1.19,0,1,0,1.18-1.19A1.18,1.18,0,0,0,44.15,24.75Z"/><path class="cls-1" d="M45.33,35.06a1.19,1.19,0,1,0,1.19,1.19A1.18,1.18,0,0,0,45.33,35.06Zm0-2.26a3.45,3.45,0,1,1-3.45,3.45A3.45,3.45,0,0,1,45.33,32.8Z"/><path d="M33.46,29.17v7.25a2.28,2.28,0,0,1-2.29,2.29H16.68a2.29,2.29,0,0,1-2.29-2.29V29.17a2.3,2.3,0,0,1,2.29-2.29H31.17A2.29,2.29,0,0,1,33.46,29.17Z"/><path d="M29.36,20.8a1,1,0,0,1,0,2.05H18.49a1,1,0,0,1,0-2.05Z"/><path d="M13.83,43.75h6.9a3.45,3.45,0,1,1-6.9,0Z"/><polyline class="cls-3" points="13.83 43.75 9.61 43.75 9.61 16.76 38.56 16.76"/><line class="cls-3" x1="38.56" y1="43.75" x2="20.73" y2="43.75"/><path class="cls-1" d="M142.5,31.2a1.48,1.48,0,0,0-.22.78,1.55,1.55,0,1,0,3.09,0,1.47,1.47,0,0,0-.25-.82,1.53,1.53,0,0,0-1.3-.72A1.51,1.51,0,0,0,142.5,31.2Zm1.32-18.81A19.59,19.59,0,1,1,124.23,32,19.59,19.59,0,0,1,143.82,12.39Z"/><path class="cls-4" d="M143.82,33.53A1.55,1.55,0,0,1,142.28,32a1.48,1.48,0,0,1,.22-.78,1.51,1.51,0,0,1,1.32-.76,1.53,1.53,0,0,1,1.3.72,1.47,1.47,0,0,1,.25.82A1.56,1.56,0,0,1,143.82,33.53Z"/><circle class="cls-5" cx="143.82" cy="31.98" r="19.59"/><line class="cls-6" x1="133.97" y1="22.13" x2="133.08" y2="21.24"/><line class="cls-6" x1="133.97" y1="41.84" x2="133.08" y2="42.72"/><line class="cls-6" x1="153.68" y1="41.84" x2="154.56" y2="42.72"/><line class="cls-6" x1="153.68" y1="22.13" x2="154.56" y2="21.24"/><line class="cls-6" x1="143.82" y1="20.1" x2="143.82" y2="16.5"/><line class="cls-6" x1="131.94" y1="31.98" x2="128.34" y2="31.98"/><line class="cls-6" x1="143.82" y1="43.87" x2="143.82" y2="47.46"/><line class="cls-6" x1="155.71" y1="31.98" x2="159.3" y2="31.98"/><polyline class="cls-6" points="143.82 31.98 142.5 31.2 136.47 27.63"/><polyline class="cls-6" points="143.99 31.98 145.12 31.16 154.56 24.37"/></g></g></g></svg>