<svg xmlns="http://www.w3.org/2000/svg" viewBox="0 0 179.28 62.77"><defs><style>.cls-1,.cls-3,.cls-4{fill:#fff;}.cls-2,.cls-3,.cls-4,.cls-6{stroke:#000;}.cls-2,.cls-3,.cls-6{stroke-miterlimit:10;}.cls-2{stroke-width:2px;}.cls-3,.cls-4{stroke-linecap:round;}.cls-3,.cls-4,.cls-6{stroke-width:0.75px;}.cls-4{stroke-linejoin:round;}.cls-5{font-size:11.43px;font-family:Arial-Black, Arial Black;font-weight:800;}.cls-6{fill:none;}</style></defs><g id="レイヤー_2" data-name="レイヤー 2"><g id="アイコン背景"><rect class="cls-1" width="179.28" height="62.77"/></g><g id="レイヤー_4" data-name="レイヤー 4"><g id="アイコン"><path class="cls-2" d="M102.06,27.2l-5.9-3.09a1.28,1.28,0,0,0-1.87,1.14v3.46A1.27,1.27,0,0,1,93,30H72.21a1.28,1.28,0,0,0-1.28,1.28h0a1.28,1.28,0,0,0,1.28,1.28H93a1.27,1.27,0,0,1,1.27,1.27v3.47a1.28,1.28,0,0,0,1.87,1.13l5.9-3.09,5.61-2.93a1.28,1.28,0,0,0,0-2.26Z"/><path d="M149.34,43.35H135.89a2.59,2.59,0,0,0-2.43,2.72V48.8h18.31V46.07A2.59,2.59,0,0,0,149.34,43.35Z"/><path d="M159.11,27.93A1.72,1.72,0,0,0,158,30l-16.26,4.45h0L125.46,38.9a1.51,1.51,0,0,0-1.84-1.25,1.72,1.72,0,0,0-1.11,2.06A1.52,1.52,0,0,0,124.34,41a1.55,1.55,0,0,0,1-.94l17.23-1.65h0l16-7.44a1.41,1.41,0,0,0,1.28.31A1.73,1.73,0,0,0,161,29.18,1.52,1.52,0,0,0,159.11,27.93Z"/><path class="cls-3" d="M142.58,31.4h0a2,2,0,0,1,2,2v9.91a0,0,0,0,1,0,0h-4.07a0,0,0,0,1,0,0V33.44A2,2,0,0,1,142.58,31.4Z"/><path class="cls-4" d="M115.73,34.44h16.55a11.63,11.63,0,0,1-16.55,0Z"/><path class="cls-4" d="M151.16,24.41H167.7a11.6,11.6,0,0,1-16.55,0Z"/><ellipse cx="142.58" cy="36.18" rx="0.85" ry="0.96"/><text class="cls-5" transform="translate(120.36 33.08) scale(0.89 1)">¥</text><text class="cls-5" transform="translate(156.25 23.53) scale(0.89 1)">¥</text><circle cx="27.84" cy="12.92" r="0.65"/><circle cx="31.94" cy="14.49" r="0.65"/><circle cx="25.99" cy="14.9" r="0.65"/><circle cx="29.57" cy="15.14" r="0.65"/><path class="cls-1" d="M29,50.39c-4.54,0-8.59-.08-12-.24-2.57-.12-4-.69-4.39-1.73s.51-2.17.91-2.59c-.86-2.52-2.33-9.06.57-19.6l.09-.36.36.09A70.26,70.26,0,0,0,29,27.56,69.67,69.67,0,0,0,43.51,26l.36-.09.1.36c2.9,10.55,1.43,17.09.56,19.61.4.42,1.3,1.54.92,2.59S43.63,50,41.06,50.15C37.62,50.31,33.57,50.39,29,50.39Z"/><path d="M43.61,26.32c2.83,10.3,1.5,16.83.49,19.6,0,0,3.84,3.54-3.06,3.85C35.87,50,30.45,50,29,50s-6.84,0-12-.24C10.1,49.46,14,45.92,14,45.92c-1-2.77-2.34-9.3.49-19.59A70,70,0,0,0,29,27.94a70.29,70.29,0,0,0,14.61-1.62m.52-.91-.71.18A69.48,69.48,0,0,1,29,27.19,70,70,0,0,1,14.62,25.6l-.71-.18-.2.71C10.87,36.49,12.2,43,13.09,45.74a3,3,0,0,0-.84,2.81c.43,1.2,2,1.85,4.72,2,3.45.16,7.5.24,12.05.24s8.61-.08,12.05-.24c2.75-.12,4.29-.77,4.73-2A3,3,0,0,0,45,45.74c.88-2.7,2.22-9.26-.63-19.62l-.2-.71Z"/><path class="cls-1" d="M44.45,19.23c1,.69,3.55,4.39,2.13,6S35.09,28.17,29,28.17s-16.14-1.24-17.56-2.9,1.12-5.35,2.14-6S17.39,18,20.16,17.8c3.82-.32,7.91-.25,8.86-.25s5.06-.07,8.87.25C40.66,18,43.28,18.45,44.45,19.23Z"/><path class="cls-1" d="M29,10.19c2.55,0,7.88,3.38,8.87,7.61-3.81-.32-7.9-.25-8.87-.25s-5-.07-8.86.25C21.15,13.57,26.48,10.19,29,10.19Z"/><path class="cls-6" d="M37.89,17.8c-1-4.23-6.32-7.61-8.87-7.61s-7.87,3.38-8.86,7.61"/><path class="cls-6" d="M20.16,17.8c3.82-.32,7.91-.25,8.86-.25s5.06-.07,8.87.25c2.77.23,5.39.65,6.56,1.43,1,.69,3.55,4.39,2.13,6S35.09,28.17,29,28.17s-16.14-1.24-17.56-2.9,1.12-5.35,2.14-6S17.39,18,20.16,17.8Z"/><rect x="19.59" y="34.16" width="18.65" height="7.02" rx="2.3"/><path d="M47,52c-3.43,0-6.48-.06-9.08-.18-2.21-.1-2.65-.65-2.73-.88-.17-.47.43-1.18.65-1.39l.19-.17-.09-.23c-.61-1.69-1.79-6.42.29-14.25A54.55,54.55,0,0,0,47,36a54,54,0,0,0,10.78-1.15c2.08,7.84.9,12.57.29,14.26l-.09.23.19.17c.22.21.83.92.65,1.39-.08.23-.51.78-2.73.88C53.49,51.9,50.43,52,47,52Z"/><path class="cls-1" d="M57.5,35.3c1.93,7.53.8,12.06.21,13.68l-.17.47.36.34c.31.29.63.79.56,1,0,0-.22.53-2.4.63-2.59.12-5.63.18-9.06.18s-6.47-.06-9.06-.18c-2.18-.1-2.4-.62-2.4-.63-.07-.19.25-.69.56-1l.37-.34L36.3,49c-.6-1.62-1.73-6.15.2-13.67A56.5,56.5,0,0,0,47,36.38,55.82,55.82,0,0,0,57.5,35.3m.54-.9a52.74,52.74,0,0,1-11,1.23,53.31,53.31,0,0,1-11-1.22c-2.14,7.79-1.13,12.73-.37,14.83,0,0-2.91,2.67,2.32,2.91,3.91.18,8,.18,9.09.18s5.18,0,9.1-.18c5.22-.24,2.31-2.91,2.31-2.91.77-2.1,1.77-7-.37-14.84Z"/><path class="cls-1" d="M58.67,29c.78.52,2.69,3.32,1.62,4.57S51.59,35.8,47,35.8s-12.22-.93-13.29-2.19.84-4.05,1.62-4.57,2.87-.92,5-1.09c2.88-.23,6-.19,6.7-.19s3.83,0,6.71.19C55.81,28.13,57.79,28.45,58.67,29Z"/><path class="cls-1" d="M45.34,25c5.35-2.16,7.65-.13,8.37,2.95-2.88-.23-6-.19-6.71-.19s-3.82,0-6.7.19c.58-2.5,1.61-2.69,3.59-2.69A3.8,3.8,0,0,0,45.34,25Z"/><path class="cls-6" d="M53.71,28c-.72-3.08-3-5.11-8.37-2.95a3.8,3.8,0,0,1-1.45.26c-2,0-3,.19-3.59,2.69"/><path class="cls-6" d="M40.3,28c2.88-.23,6-.19,6.7-.19s3.83,0,6.71.19c2.1.18,4.08.5,5,1.09s2.69,3.32,1.62,4.57S51.59,35.8,47,35.8s-12.22-.93-13.29-2.19.84-4.05,1.62-4.57S38.2,28.12,40.3,28Z"/><ellipse class="cls-1" cx="46.92" cy="41.65" rx="5.84" ry="3.55"/></g></g></g></svg>