<svg xmlns="http://www.w3.org/2000/svg" viewBox="0 0 179.28 62.77"><defs><style>.cls-1{fill:#fff;}.cls-2{fill:none;stroke-width:0.75px;}.cls-2,.cls-3{stroke:#000;stroke-miterlimit:10;}.cls-3{stroke-width:2px;}</style></defs><g id="レイヤー_2" data-name="レイヤー 2"><g id="アイコン背景"><rect class="cls-1" width="179.28" height="62.77"/></g><g id="レイヤー_4" data-name="レイヤー 4"><g id="アイコン"><path class="cls-1" d="M45.89,19a9.8,9.8,0,0,1-3.78,7.74,3.72,3.72,0,0,0-1.4,2.92V44a4.64,4.64,0,0,1-4.65,4.65h0a2.28,2.28,0,0,0,.35-.85l.15-.13a3.73,3.73,0,0,0,1.11-2.51,2.27,2.27,0,0,0,.83-1.76V41a2.13,2.13,0,0,0-.13-.76,2.27,2.27,0,0,0-2.15-1.52h-.25a2.27,2.27,0,0,0-2,1.1l-2.57-2.57V29.64a3.83,3.83,0,0,0-1.47-3,9.83,9.83,0,1,1,16-7.69Zm-3.56,0a6.27,6.27,0,0,0-6.27-6.27V25.25A6.27,6.27,0,0,0,42.33,19Z"/><path d="M36.06,12.71a6.27,6.27,0,0,1,0,12.54Z"/><path class="cls-1" d="M37.64,45a.86.86,0,0,1,0,.16,2.24,2.24,0,0,1-1.45.52h-.36l-.08-.09a2.24,2.24,0,0,0-.38-.31,1.85,1.85,0,0,0-.42-1.94l-.55-.54L33.65,42V41A2.25,2.25,0,0,1,34,39.78l1.66,1.67h0l.92.92A3.63,3.63,0,0,1,37.64,45Z"/><path class="cls-1" d="M37.63,45.11a3.73,3.73,0,0,1-1.11,2.51l-.15.13a2.1,2.1,0,0,0,.06-.51,2.42,2.42,0,0,0-.61-1.61h.36A2.24,2.24,0,0,0,37.63,45.11Z"/><path class="cls-1" d="M36.43,47.24a2.1,2.1,0,0,1-.06.51,3.58,3.58,0,0,1-1.26.76,5.48,5.48,0,0,1-.72-.22,1.19,1.19,0,0,0,.53-1v-.13a1.17,1.17,0,0,0-.42-.9,2.17,2.17,0,0,0,.29-.24l.15-.14a1.59,1.59,0,0,0,.27-.37,2.44,2.44,0,0,0,.61.11A2.42,2.42,0,0,1,36.43,47.24Z"/><path class="cls-1" d="M36.37,47.75a2.28,2.28,0,0,1-.35.85,5.4,5.4,0,0,1-.91-.09A3.58,3.58,0,0,0,36.37,47.75Z"/><path class="cls-1" d="M36,48.6a2.38,2.38,0,0,1-2,1H34c-.06-.09-.1-.19-.15-.28s-.19-.42-.27-.64a3.64,3.64,0,0,0,1.57-.2A5.4,5.4,0,0,0,36,48.6Z"/><path class="cls-1" d="M35.74,45.54l.08.09a2.44,2.44,0,0,1-.61-.11,1.59,1.59,0,0,0,.15-.29A2.24,2.24,0,0,1,35.74,45.54Z"/><path class="cls-1" d="M35.36,45.23a1.59,1.59,0,0,1-.15.29,2.36,2.36,0,0,1-1-.67A2.28,2.28,0,0,1,35.36,45.23Z"/><path class="cls-1" d="M35.21,45.52a1.59,1.59,0,0,1-.27.37l-.15.14a2.17,2.17,0,0,1-.29.24,1.15,1.15,0,0,0-.75-.27H32.58a1.34,1.34,0,0,0-.35,0l0,0-.52-.52a4.72,4.72,0,0,1-.19-.67h2.72A2.36,2.36,0,0,0,35.21,45.52Z"/><path class="cls-1" d="M34.92,47.17v.13a1.19,1.19,0,0,1-.53,1,4.22,4.22,0,0,1-1.12-.62,6.38,6.38,0,0,1-.1-1v-.15a1.83,1.83,0,0,0,1.33-.27A1.17,1.17,0,0,1,34.92,47.17Z"/><path class="cls-1" d="M34.39,48.29a5.48,5.48,0,0,0,.72.22,3.64,3.64,0,0,1-1.57.2,2,2,0,0,1-.07-.23h.28A1.17,1.17,0,0,0,34.39,48.29Z"/><path class="cls-1" d="M34.21,44.85h-.82a7.18,7.18,0,0,1,.33-.92A2.38,2.38,0,0,0,34.21,44.85Z"/><path class="cls-1" d="M33.75,46a1.15,1.15,0,0,1,.75.27,1.83,1.83,0,0,1-1.33.27,4.87,4.87,0,0,1,0-.54Z"/><path class="cls-1" d="M34.39,48.29a1.17,1.17,0,0,1-.64.19h-.28a5.33,5.33,0,0,1-.2-.81A4.22,4.22,0,0,0,34.39,48.29Z"/><path class="cls-1" d="M31.41,37.21,34,39.78A2.25,2.25,0,0,0,33.65,41v1a1.84,1.84,0,0,0-2.24-.28Z"/><path class="cls-1" d="M34,49.63H26.84a1.93,1.93,0,0,0-1.51.76,4.92,4.92,0,0,1-4.1,1.91,5.07,5.07,0,0,1,.21-10.12,5,5,0,0,1,3.92,1.94,1.85,1.85,0,0,0,1.48.72h1.61l2.83,2.83a3.11,3.11,0,0,0,.33.29,1.15,1.15,0,0,0,.87.51h0a3.21,3.21,0,0,0,1,.24c.08.22.17.43.27.64S33.9,49.54,34,49.63ZM21.44,47.24V44a3.2,3.2,0,0,0-3.17,3.23Z"/><path class="cls-1" d="M33.47,48.48a2,2,0,0,0,.07.23,3.21,3.21,0,0,1-1-.24h1Z"/><path class="cls-1" d="M33.47,48.48h-1a3.82,3.82,0,0,1-.87-.51,1.17,1.17,0,0,1-.2-.66v-.13a1.17,1.17,0,0,1,.56-1,4.57,4.57,0,0,0,1.3,1.5A5.33,5.33,0,0,0,33.47,48.48Z"/><path class="cls-1" d="M33.17,46.69a6.38,6.38,0,0,0,.1,1,4.57,4.57,0,0,1-1.3-1.5,1.23,1.23,0,0,1,.26-.12,1.75,1.75,0,0,0,.94.49Z"/><path class="cls-1" d="M32.58,46h.61a4.87,4.87,0,0,0,0,.54,1.75,1.75,0,0,1-.94-.49A1.34,1.34,0,0,1,32.58,46Z"/><path class="cls-1" d="M32.2,46l0,0a1.23,1.23,0,0,0-.26.12,4.88,4.88,0,0,1-.29-.66Z"/><path class="cls-1" d="M31.61,48a3.82,3.82,0,0,0,.87.51A1.15,1.15,0,0,1,31.61,48Z"/><path class="cls-1" d="M31.68,45.51a4.88,4.88,0,0,0,.29.66,1.17,1.17,0,0,0-.56,1v.13a1.17,1.17,0,0,0,.2.66,3.11,3.11,0,0,1-.33-.29l-2.83-2.83H31Z"/><path class="cls-1" d="M31.68,45.51,31,44.84h.48A4.72,4.72,0,0,0,31.68,45.51Z"/><path class="cls-1" d="M31.41,37.21v4.52a1.93,1.93,0,0,0-.36.28l-.14.14a1.84,1.84,0,0,0,0,2.59l.1.1H28.45l-5.16-5.16a3,3,0,0,0-2.5-.83,7.7,7.7,0,0,1-6.64-2.43A7.91,7.91,0,0,1,25.57,25.48,7.7,7.7,0,0,1,27.75,32a2.91,2.91,0,0,0,.83,2.43Zm-7.93-2.63a5,5,0,1,0-7.07.06A5,5,0,0,0,23.48,34.58Z"/><path d="M23.55,27.51a5,5,0,1,1-7.07.06A5,5,0,0,1,23.55,27.51Z"/><path d="M21.44,44v3.23H18.27A3.2,3.2,0,0,1,21.44,44Z"/><path class="cls-2" d="M36,48.6h0A4.64,4.64,0,0,0,40.71,44V29.64a3.72,3.72,0,0,1,1.4-2.92,9.83,9.83,0,1,0-12.17,0,3.83,3.83,0,0,1,1.47,3v7.57"/><path class="cls-2" d="M34,39.78a2.27,2.27,0,0,1,2-1.1h.25a2.27,2.27,0,0,1,2.15,1.52,2.13,2.13,0,0,1,.13.76v2.39a2.27,2.27,0,0,1-.83,1.76"/><path class="cls-2" d="M35.64,41.45,34,39.78l-2.57-2.57-2.83-2.83A2.91,2.91,0,0,1,27.75,32a7.7,7.7,0,0,0-2.18-6.47A7.91,7.91,0,0,0,14.15,36.42a7.7,7.7,0,0,0,6.64,2.43,3,3,0,0,1,2.5.83l5.16,5.16"/><path class="cls-2" d="M36.37,47.75l.15-.13a3.73,3.73,0,0,0,1.11-2.51.86.86,0,0,0,0-.16,3.63,3.63,0,0,0-1.07-2.58l-.92-.92"/><path class="cls-2" d="M31,44.84l-.1-.1a1.84,1.84,0,0,1,0-2.59l.14-.14a1.93,1.93,0,0,1,.36-.28,1.84,1.84,0,0,1,2.24.28l.74.74.55.54a1.85,1.85,0,0,1,.42,1.94"/><path class="cls-2" d="M28.45,44.84H26.84a1.85,1.85,0,0,1-1.48-.72,5,5,0,0,0-3.92-1.94,5.07,5.07,0,0,0-.21,10.12,4.92,4.92,0,0,0,4.1-1.91,1.93,1.93,0,0,1,1.51-.76h7.23a2.38,2.38,0,0,0,2-1,2.28,2.28,0,0,0,.35-.85,2.1,2.1,0,0,0,.06-.51,2.42,2.42,0,0,0-.61-1.61l-.08-.09a2.24,2.24,0,0,0-.38-.31,2.28,2.28,0,0,0-1.15-.38H28.45Z"/><path class="cls-2" d="M34.5,46.27a1.17,1.17,0,0,1,.42.9v.13a1.19,1.19,0,0,1-.53,1,1.17,1.17,0,0,1-.64.19H32.48a1.15,1.15,0,0,1-.87-.51,1.17,1.17,0,0,1-.2-.66v-.13a1.17,1.17,0,0,1,.56-1,1.23,1.23,0,0,1,.26-.12,1.34,1.34,0,0,1,.35,0h1.17A1.15,1.15,0,0,1,34.5,46.27Z"/><path class="cls-2" d="M40.71,40.17A6.46,6.46,0,1,1,34,49.63c-.06-.09-.1-.19-.15-.28s-.19-.42-.27-.64a2,2,0,0,1-.07-.23,5.33,5.33,0,0,1-.2-.81,6.38,6.38,0,0,1-.1-1v-.15a4.87,4.87,0,0,1,0-.54"/><path class="cls-2" d="M35.64,41.45h0a6.64,6.64,0,0,1,.9-.59,6.24,6.24,0,0,1,1.75-.65"/><path class="cls-2" d="M33.39,44.84a7.18,7.18,0,0,1,.33-.92,6.12,6.12,0,0,1,.67-1.17"/><path class="cls-1" d="M162.05,14.2a2.37,2.37,0,0,1-1.67,4.05H127.26a2.38,2.38,0,0,1,0-4.75h33.12A2.34,2.34,0,0,1,162.05,14.2Z"/><path class="cls-1" d="M143.82,25A10.94,10.94,0,1,1,132.91,35.9,10.94,10.94,0,0,1,143.82,25Zm2,10.94a2.07,2.07,0,0,0-1.24-1.9V29A.83.83,0,1,0,143,29v5a2.07,2.07,0,1,0,2.89,1.9Z"/><path class="cls-1" d="M161.28,47a3.21,3.21,0,0,1-3.19,3.56H129.55A3.21,3.21,0,0,1,126.36,47l2.5-22.83a3.21,3.21,0,0,1,3.19-2.86h23.54a3.21,3.21,0,0,1,3.19,2.86Zm-6.55-11.1a10.91,10.91,0,1,0-10.91,10.94A10.94,10.94,0,0,0,154.73,35.9Z"/><path d="M150.05,50.56h6.09a3,3,0,1,1-6.09,0Z"/><rect x="141.17" y="18.25" width="5.29" height="3.05"/><path d="M144.61,34A2.07,2.07,0,1,1,143,34V29a.83.83,0,1,1,1.65,0Z"/><path d="M131.5,50.56h6.09a3,3,0,1,1-6.09,0Z"/><path class="cls-2" d="M144.61,34V29A.83.83,0,1,0,143,29v5a2.07,2.07,0,1,0,1.65,0Z"/><path class="cls-2" d="M150.05,50.56a3,3,0,1,0,6.09,0h2A3.21,3.21,0,0,0,161.28,47l-2.5-22.83a3.21,3.21,0,0,0-3.19-2.86h-9.12V18.25h13.91a2.37,2.37,0,0,0,1.67-4.05,2.34,2.34,0,0,0-1.67-.7H127.26a2.38,2.38,0,1,0,0,4.75h13.91v3.06h-9.12a3.21,3.21,0,0,0-3.19,2.86L126.36,47a3.21,3.21,0,0,0,3.19,3.56h1.95a3,3,0,1,0,6.09,0"/><path class="cls-2" d="M143.82,46.84A10.94,10.94,0,1,1,154.73,35.9,10.94,10.94,0,0,1,143.82,46.84Z"/><line class="cls-2" x1="141.17" y1="18.25" x2="146.47" y2="18.25"/><line class="cls-2" x1="141.17" y1="21.31" x2="146.47" y2="21.31"/><polyline class="cls-2" points="131.5 50.56 137.59 50.56 150.05 50.56 156.14 50.56"/><path class="cls-3" d="M102.06,27l-5.9-3.09a1.28,1.28,0,0,0-1.87,1.13v3.47A1.27,1.27,0,0,1,93,29.8H72.21a1.28,1.28,0,0,0-1.28,1.28h0a1.28,1.28,0,0,0,1.28,1.28H93a1.27,1.27,0,0,1,1.27,1.27v3.46a1.28,1.28,0,0,0,1.87,1.14l5.9-3.09,5.61-2.93a1.28,1.28,0,0,0,0-2.26Z"/></g></g></g></svg>